# AST/ASF file generated using VICON BodyLanguage
# -----------------------------------------------
:version 1.10
:name VICON
:units
  mass 1.0
  length 0.45
  angle deg
:documentation
   .ast/.asf automatically generated from VICON data using
   VICON BodyBuilder and BodyLanguage model FoxedUp or BRILLIANT.MOD
:root
   order TX TY TZ RX RY RZ
   axis XYZ
   position 0 0 0  
   orientation 0 0 0 
:bonedata
  begin
     id 1 
     name lhipjoint
     direction 0.577973 -0.728611 0.367523 
     length 2.48544 
     axis 0 0 0  XYZ
  end
  begin
     id 2 
     name lfemur
     direction 0.34202 -0.939693 0  
     length 7.1921  
     axis 0 0 20  XYZ
    dof rx ry rz
    limits (-160.0 20.0)
           (-70.0 70.0)
           (-60.0 70.0)
  end
  begin
     id 3 
     name ltibia
     direction 0.34202 -0.939693 0   
     length 7.71059   
     axis 0 0 20   XYZ
    dof rx
    limits (-10.0 170.0)
  end
  begin
     id 4 
     name lfoot
     direction 0.089538 -0.246004 0.965124   
     length 2.19909   
     axis -90 7.62852e-016 20   XYZ
    dof rx rz
    limits (-45.0 90.0)
           (-70.0 20.0)
  end
  begin
     id 5 
     name ltoes
     direction 1.53544e-011 -4.21829e-011 1   
     length 1.10116   
     axis -90 7.62852e-016 20   XYZ
    dof rx
    limits (-90.0 20.0)
  end
  begin
     id 6 
     name rhipjoint
     direction -0.554414 -0.743062 0.374812   
     length 2.4371  
     axis 0 0 0  XYZ 
  end
  begin
     id 7 
     name rfemur
     direction -0.34202 -0.939693 0   
     length 7.47254   
     axis 0 0 -20   XYZ
    dof rx ry rz
    limits (-160.0 20.0)
           (-70.0 70.0)
           (-70.0 60.0)
  end
  begin
     id 8 
     name rtibia
     direction -0.34202 -0.939693 0   
     length 7.65855   
     axis 0 0 -20   XYZ
    dof rx
    limits (-10.0 170.0)
 end
 begin
     id 9 
     name rfoot
     direction -0.133779 -0.367555 0.92033   
     length 2.43006  
     axis -90 -7.62852e-016 -20   XYZ
    dof rx rz
    limits (-45.0 90.0)
           (-20.0 70.0)
  end
  begin
     id 10 
     name rtoes
     direction -1.53563e-011 -4.21889e-011 1   
     length 1.19625   
     axis -90 -7.62852e-016 -20   XYZ
    dof rx
    limits (-90.0 20.0)
  end
  begin
     id 11 
     name lowerback
     direction 0.0249066 0.998043 -0.0573585   
     length 2.08485   
     axis 0 0 0   XYZ
    dof rx ry rz
    limits (-20.0 45.0)
           (-30.0 30.0)
           (-30.0 30.0)
  end
  begin
     id 12 
     name upperback
     direction 0.0237884 0.999673 0.00943178   
     length 2.08515   
     axis 0 0 0   XYZ
    dof rx ry rz
    limits (-20.0 45.0)
           (-30.0 30.0)
           (-30.0 30.0)
  end
  begin
     id 13 
     name thorax
     direction 0.0106671 0.999301 0.0358174   
     length 2.09037   
     axis 0 0 0   XYZ
    dof rx ry rz
    limits (-20.0 45.0)
           (-30.0 30.0)
           (-30.0 30.0)
  end
  begin
     id 14 
     name lowerneck
     direction -0.0580016 0.987052 0.149546   
     length 1.84454   
     axis 0 0 0   XYZ
    dof rx ry rz
    limits (-20.0 45.0)
           (-30.0 30.0)
           (-30.0 30.0)
  end
  begin
     id 15 
     name upperneck
     direction 0.079456 0.981963 -0.171567   
     length 1.88141   
     axis 0 0 0   XYZ
    dof rx ry rz
    limits (-20.0 45.0)
           (-30.0 30.0)
           (-30.0 30.0)
  end
  begin
     id 16
     name head
     direction 0.0262167 0.9967 -0.0768276  
     length 1.89541  
     axis 0 0 0   XYZ
    dof rx ry rz
    limits (-20.0 45.0)
           (-30.0 30.0)
           (-30.0 30.0)
  end
  begin
     id 17 
     name lclavicle
     direction 0.946135 0.322134 -0.0325326  
     length 3.949  
     axis 0 0 0   XYZ
    dof ry rz
    limits (-20.0 10.0)
           (0.0 20.0)
  end
  begin
     id 18 
     name lhumerus
     direction 1 -4.48964e-011 1.94005e-028   
     length 5.10995   
     axis 180 -30 -90   XYZ
    dof rx ry rz
    limits (-60.0 90.0)
           (-90.0 90.0)
           (-90.0 90.0)
  end
  begin
     id 19
     name lradius
     direction 1 -4.48976e-011 2.87852e-027   
     length 3.21207   
     axis 180 -30 -90   XYZ
    dof rx
    limits (-10.0 170.0)
  end
  begin
     id 20
     name lwrist
     direction 1 -4.48963e-011 1.9975e-027   
     length 1.60604   
     axis 2.96054e-016 90 90   XYZ
    dof ry
    limits (-180.0 0.0)
 end
  begin
     id 21 
     name lhand
     direction 1 -4.48919e-011 4.00227e-027   
     length 0.63349   
     axis -2.5488e-015 90 90   XYZ
    dof rx rz
    limits (-90.0 90.0)
           (-45.0 45.0)
  end
  begin
     id 22 
     name lfingers
     direction 1 -4.49037e-011 7.9652e-027   
     length 0.510736   
     axis -5.0975e-015 90 90   XYZ
    dof rx
    limits (0.0 90.0)
  end
  begin
     id 23
     name lthumb
     direction 0.707107 -6.34922e-011 0.707107   
     length 0.733318   
     axis -90 45 -4.48553e-014   XYZ
    dof rx rz
    limits (-45.0 45.0)
           (-45.0 45.0)
  end
  begin
     id 24 
     name rclavicle
     direction -0.940085 0.328911 -0.0897654   
     length 3.93848  
     axis 0 0 0   XYZ 
    dof ry rz
    limits (-10.0 20.0)
           (-20.0 0.0)
  end
  begin
     id 25 
     name rhumerus
     direction -1 -4.48958e-011 3.02044e-027  
     length 5.25109   
     axis 180 30 90   XYZ
    dof rx ry rz
    limits (-90.0 60.0)
           (-90.0 90.0)
           (-90.0 90.0)
  end
  begin
     id 26 
     name rradius
     direction -1 -4.4897e-011 9.78352e-028   
     length 3.28364   
     axis 180 30 90   XYZ
    dof rx
    limits (-10.0 170.0)
  end
  begin
     id 27 
     name rwrist
     direction -1 -4.48943e-011 1.99918e-027   
     length 1.64182   
     axis 2.96054e-016 -90 -90   XYZ
    dof ry
    limits (-180.0 0.0)
  end
  begin
     id 28
     name rhand
     direction -1 -4.49024e-011 3.98478e-027   
     length 0.599745   
     axis -2.5488e-015 -90 -90   XYZ
    dof rx rz
    limits (-90.0 90.0)
           (-45.0 45.0)
  end
  begin
     id 29
     name rfingers
     direction -1 -4.48914e-011 8.00621e-027   
     length 0.48353   
     axis -5.0975e-015 -90 -90   XYZ
    dof rx
    limits (0.0 90.0)
  end
  begin
     id 30
     name rthumb
     direction -0.707107 -6.34992e-011 0.707107   
     length 0.694255   
     axis -90 -45 4.48553e-014   XYZ
    dof rx rz
    limits (-45.0 45.0)
           (-45.0 45.0)
  end
:hierarchy
  begin
    root lhipjoint rhipjoint lowerback
    lhipjoint lfemur
    lfemur ltibia
    ltibia lfoot
    lfoot ltoes
    rhipjoint rfemur
    rfemur rtibia
    rtibia rfoot
    rfoot rtoes
    lowerback upperback
    upperback thorax
    thorax lowerneck lclavicle rclavicle
    lowerneck upperneck
    upperneck head
    lclavicle lhumerus
    lhumerus lradius
    lradius lwrist
    lwrist lhand lthumb
    lhand lfingers
    rclavicle rhumerus
    rhumerus rradius
    rradius rwrist
    rwrist rhand rthumb
    rhand rfingers
  end

#!OML:ASF E:\CV Data\Top Level 1\Subject 1\Session 1\player.ASF
:FULLY-SPECIFIED
:DEGREES
375
root 4.62181 17.8743 -13.7317 5.65857 -4.04254 -5.31443
lowerback 7.07671 0.470747 3.23442
upperback -0.306855 1.02196 2.87184
thorax -4.28877 0.465484 1.05167
lowerneck -18.5525 -6.38504 -11.7352
upperneck 26.3717 -7.68172 7.58919
head 12.6266 -3.64171 3.60042
rclavicle -1.82385e-014 -3.18055e-015
rhumerus -35.625 0.247894 -87.4972
rradius 31.9771
rwrist -16.5878
rhand -21.9836 1.68667
rfingers 7.12502
rthumb 4.42463 -28.2471
lclavicle -1.82385e-014 -3.18055e-015
lhumerus -42.0633 2.67942 87.2113
lradius 38.4081
lwrist 2.31954
lhand -14.7771 11.2365
lfingers 7.12502
lthumb 11.3798 40.9077
rfemur -12.9874 5.68795 21.9938
rtibia 21.953
rfoot -12.8031 -6.82079
rtoes 2.71716
lfemur -9.69319 -1.56594 -11.9535
ltibia 19.0436
lfoot -9.15376 4.16289
ltoes -0.767879
376
root 4.62409 17.8747 -13.7249 5.78781 -4.0466 -5.33456
lowerback 7.12986 0.46968 3.23109
upperback -0.25656 1.02097 2.8755
thorax -4.26646 0.465536 1.05703
lowerneck -18.6241 -6.37942 -11.7065
upperneck 26.4809 -7.65951 7.52178
head 12.6781 -3.63645 3.5743
rclavicle -3.23025e-015 -2.98177e-014
rhumerus -35.537 0.32954 -87.5568
rradius 32.0587
rwrist -16.6764
rhand -22.0213 1.69606
rfingers 7.12502
rthumb 4.38818 -28.2385
lclavicle -3.23025e-015 -2.98177e-014
lhumerus -41.9963 2.59472 87.2521
lradius 38.5283
lwrist 2.41842
lhand -14.8258 11.2584
lfingers 7.12502
lthumb 11.3327 40.9322
rfemur -13.1171 5.68362 21.9947
rtibia 21.9699
rfoot -12.8154 -6.80808
rtoes 2.7036
lfemur -9.84993 -1.56045 -11.9384
ltibia 19.1212
lfoot -9.18733 4.19194
ltoes -0.82036
377
root 4.62654 17.8751 -13.7182 5.92594 -4.05653 -5.35351
lowerback 7.19073 0.470492 3.22549
upperback -0.2138 1.02308 2.87989
thorax -4.25638 0.467015 1.06402
lowerneck -18.6792 -6.37223 -11.6852
upperneck 26.5889 -7.635 7.4561
head 12.726 -3.63114 3.55074
rclavicle 3.77691e-015 -3.49861e-014
rhumerus -35.4619 0.411814 -87.6131
rradius 32.1486
rwrist -16.7607
rhand -22.0639 1.69351
rfingers 7.12502
rthumb 4.3471 -28.2419
lclavicle 3.77691e-015 -3.49861e-014
lhumerus -41.9479 2.51121 87.2955
lradius 38.6617
lwrist 2.50899
lhand -14.8754 11.2787
lfingers 7.12502
lthumb 11.285 40.9551
rfemur -13.2597 5.68011 21.9922
rtibia 21.9879
rfoot -12.8245 -6.79209
rtoes 2.69104
lfemur -10.0155 -1.55848 -11.9251
ltibia 19.1993
lfoot -9.21767 4.22817
ltoes -0.865997
378
root 4.62922 17.8757 -13.7116 6.07899 -4.08107 -5.37478
lowerback 7.25242 0.476369 3.22381
upperback -0.17915 1.03261 2.88281
thorax -4.25509 0.471936 1.06651
lowerneck -18.7178 -6.36322 -11.6716
upperneck 26.6943 -7.60952 7.39822
head 12.7704 -3.62562 3.53191
rclavicle -5.11871e-015 -5.56597e-015
rhumerus -35.3969 0.490889 -87.6688
rradius 32.2426
rwrist -16.8374
rhand -22.1118 1.67567
rfingers 7.12502
rthumb 4.3008 -28.2607
lclavicle -5.11871e-015 -5.56597e-015
lhumerus -41.9151 2.42412 87.3396
lradius 38.8058
lwrist 2.59117
lhand -14.9122 11.314
lfingers 7.12502
lthumb 11.2495 40.9923
rfemur -13.4219 5.6808 21.9885
rtibia 22.0075
rfoot -12.8316 -6.76623
rtoes 2.68098
lfemur -10.194 -1.553 -11.9111
ltibia 19.2786
lfoot -9.24578 4.27669
ltoes -0.918998
379
root 4.63205 17.8763 -13.7051 6.23837 -4.12658 -5.39911
lowerback 7.32426 0.489225 3.22451
upperback -0.15029 1.05236 2.88415
thorax -4.26542 0.481703 1.06484
lowerneck -18.7368 -6.35157 -11.6655
upperneck 26.7933 -7.5829 7.35068
head 12.8089 -3.61951 3.5188
rclavicle 1.6847e-014 -1.70955e-014
rhumerus -35.3464 0.561602 -87.7227
rradius 32.3435
rwrist -16.9004
rhand -22.1541 1.65303
rfingers 7.12502
rthumb 4.26 -28.2841
lclavicle 1.6847e-014 -1.70955e-014
lhumerus -41.8977 2.33462 87.3831
lradius 38.9586
lwrist 2.66423
lhand -14.9409 11.3558
lfingers 7.12502
lthumb 11.2218 41.0357
rfemur -13.595 5.68975 21.9851
rtibia 22.0292
rfoot -12.8367 -6.72849
rtoes 2.66316
lfemur -10.3752 -1.53865 -11.8959
ltibia 19.3598
lfoot -9.27524 4.33611
ltoes -0.947501
380
root 4.63488 17.8768 -13.6985 6.39526 -4.16874 -5.42133
lowerback 7.40456 0.500541 3.22348
upperback -0.124534 1.07049 2.88506
thorax -4.28377 0.4906 1.06376
lowerneck -18.7241 -6.33699 -11.6705
upperneck 26.8843 -7.55474 7.31273
head 12.8385 -3.61335 3.51197
rclavicle -8.94531e-016 -3.57812e-014
rhumerus -35.3136 0.627186 -87.7736
rradius 32.4537
rwrist -16.9505
rhand -22.1894 1.62639
rfingers 7.12502
rthumb 4.22583 -28.3114
lclavicle -8.94531e-016 -3.57812e-014
lhumerus -41.9003 2.24221 87.4278
lradius 39.1236
lwrist 2.73286
lhand -14.9493 11.4252
lfingers 7.12502
lthumb 11.2137 41.1055
rfemur -13.7653 5.69958 21.9801
rtibia 22.0524
rfoot -12.8443 -6.69623
rtoes 2.63504
lfemur -10.5555 -1.52182 -11.8825
ltibia 19.4434
lfoot -9.31012 4.39013
ltoes -0.960776
381
root 4.63758 17.8771 -13.6923 6.5463 -4.19897 -5.43996
lowerback 7.49475 0.508132 3.21649
upperback -0.0961869 1.0836 2.88709
thorax -4.30512 0.49713 1.06764
lowerneck -18.692 -6.32197 -11.6852
upperneck 26.97 -7.52725 7.28272
head 12.863 -3.60789 3.50998
rclavicle -4.52235e-015 -3.18055e-015
rhumerus -35.2859 0.687793 -87.8204
rradius 32.5677
rwrist -16.9947
rhand -22.2202 1.60568
rfingers 7.12502
rthumb 4.19613 -28.3327
lclavicle -4.52235e-015 -3.18055e-015
lhumerus -41.9079 2.14821 87.4754
lradius 39.2934
lwrist 2.80096
lhand -14.9427 11.5037
lfingers 7.12502
lthumb 11.22 41.1837
rfemur -13.9293 5.70788 21.9734
rtibia 22.0769
rfoot -12.8543 -6.67419
rtoes 2.60234
lfemur -10.7345 -1.49611 -11.871
ltibia 19.528
lfoot -9.35191 4.42333
ltoes -0.949683
382
root 4.64002 17.8776 -13.6864 6.69659 -4.21076 -5.45338
lowerback 7.5892 0.51187 3.20075
upperback -0.0580171 1.09064 2.89035
thorax -4.31883 0.500973 1.07832
lowerneck -18.6733 -6.31291 -11.7003
upperneck 27.0509 -7.50607 7.25263
head 12.8892 -3.60491 3.50656
rclavicle -2.54444e-014 -1.07344e-014
rhumerus -35.2493 0.740937 -87.8618
rradius 32.6905
rwrist -17.0401
rhand -22.2469 1.60233
rfingers 7.12502
rthumb 4.17033 -28.3366
lclavicle -2.54444e-014 -1.07344e-014
lhumerus -41.9016 2.05074 87.5283
lradius 39.4687
lwrist 2.87238
lhand -14.9222 11.5795
lfingers 7.12502
lthumb 11.2398 41.2584
rfemur -14.0924 5.71039 21.9639
rtibia 22.1035
rfoot -12.866 -6.66547
rtoes 2.56331
lfemur -10.9202 -1.46822 -11.8608
ltibia 19.6127
lfoot -9.39893 4.42971
ltoes -0.861689
383
root 4.64219 17.8783 -13.681 6.84735 -4.18896 -5.46171
lowerback 7.69061 0.505105 3.18051
upperback -0.0128563 1.08338 2.89489
thorax -4.32931 0.497909 1.0944
lowerneck -18.6718 -6.30649 -11.7135
upperneck 27.126 -7.48667 7.22229
head 12.9166 -3.60209 3.50198
rclavicle -4.12478e-015 0
rhumerus -35.1989 0.793638 -87.9025
rradius 32.8143
rwrist -17.0984
rhand -22.2777 1.61498
rfingers 7.12502
rthumb 4.14061 -28.3245
lclavicle -4.12478e-015 0
lhumerus -41.8846 1.95441 87.5828
lradius 39.6467
lwrist 2.93838
lhand -14.8898 11.6461
lfingers 7.12502
lthumb 11.2711 41.3232
rfemur -14.2549 5.70028 21.9533
rtibia 22.1314
rfoot -12.8801 -6.67681
rtoes 2.52647
lfemur -11.1177 -1.4539 -11.8497
ltibia 19.6975
lfoot -9.44795 4.40939
ltoes -0.717657
384
root 4.64419 17.8791 -13.6762 7.00906 -4.14909 -5.46906
lowerback 7.7966 0.494772 3.15911
upperback 0.0366373 1.07129 2.89955
thorax -4.33786 0.492511 1.11179
lowerneck -18.6992 -6.30267 -11.7152
upperneck 27.193 -7.46906 7.18719
head 12.9462 -3.59873 3.49259
rclavicle -8.15017e-015 6.36111e-015
rhumerus -35.1362 0.84461 -87.944
rradius 32.9425
rwrist -17.1763
rhand -22.3212 1.6403
rfingers 7.12502
rthumb 4.09857 -28.3
lclavicle -8.15017e-015 6.36111e-015
lhumerus -41.8499 1.85292 87.6392
lradius 39.8219
lwrist 3.00495
lhand -14.8576 11.6836
lfingers 7.12502
lthumb 11.3021 41.3591
rfemur -14.4306 5.68485 21.9426
rtibia 22.1594
rfoot -12.8907 -6.69854
rtoes 2.49665
lfemur -11.3352 -1.44123 -11.837
ltibia 19.7842
lfoot -9.49459 4.37681
ltoes -0.606637
385
root 4.6462 17.8801 -13.6718 7.17993 -4.09246 -5.4746
lowerback 7.90322 0.479697 3.14077
upperback 0.0926542 1.05279 2.90263
thorax -4.33986 0.483946 1.12657
lowerneck -18.7482 -6.30182 -11.7093
upperneck 27.246 -7.45418 7.15074
head 12.9745 -3.59531 3.48021
rclavicle -1.90833e-014 -2.22639e-014
rhumerus -35.0602 0.896509 -87.9871
rradius 33.0768
rwrist -17.2648
rhand -22.3728 1.658
rfingers 7.12502
rthumb 4.04873 -28.2833
lclavicle -1.90833e-014 -2.22639e-014
lhumerus -41.8052 1.7496 87.6955
lradius 40.0037
lwrist 3.06975
lhand -14.8376 11.6906
lfingers 7.12502
lthumb 11.3213 41.365
rfemur -14.6164 5.66143 21.9305
rtibia 22.1879
rfoot -12.9004 -6.72796
rtoes 2.47232
lfemur -11.5706 -1.43505 -11.8244
ltibia 19.8728
lfoot -9.53733 4.33502
ltoes -0.513235
386
root 4.6485 17.8814 -13.6676 7.36987 -4.04374 -5.4856
lowerback 8.00675 0.467065 3.13112
upperback 0.138848 1.03858 2.90535
thorax -4.35016 0.477186 1.1357
lowerneck -18.7752 -6.29665 -11.7097
upperneck 27.2936 -7.43566 7.12172
head 12.9962 -3.59048 3.47276
rclavicle 1.81888e-014 -3.18055e-014
rhumerus -35.0034 0.961741 -88.0362
rradius 33.2217
rwrist -17.3772
rhand -22.4384 1.66851
rfingers 7.12502
rthumb 3.9854 -28.274
lclavicle 1.81888e-014 -3.18055e-014
lhumerus -41.7805 1.63977 87.7544
lradius 40.1934
lwrist 3.13921
lhand -14.8302 11.6836
lfingers 7.12502
lthumb 11.3285 41.3577
rfemur -14.8248 5.64227 21.92
rtibia 22.215
rfoot -12.9061 -6.75208
rtoes 2.45558
lfemur -11.828 -1.42183 -11.8084
ltibia 19.9643
lfoot -9.57416 4.30069
ltoes -0.466986
387
root 4.65125 17.8826 -13.6634 7.57179 -4.01436 -5.50091
lowerback 8.11779 0.460683 3.12693
upperback 0.175433 1.03395 2.90718
thorax -4.37454 0.474867 1.13971
lowerneck -18.7763 -6.28737 -11.7172
upperneck 27.3315 -7.41443 7.10206
head 13.0091 -3.58451 3.47094
rclavicle -2.6339e-015 1.43125e-014
rhumerus -34.9734 1.0361 -88.0899
rradius 33.3804
rwrist -17.5063
rhand -22.5125 1.6749
rfingers 7.12502
rthumb 3.91383 -28.2689
lclavicle -2.6339e-015 1.43125e-014
lhumerus -41.7791 1.52307 87.8173
lradius 40.3916
lwrist 3.21626
lhand -14.8479 11.6449
lfingers 7.12502
lthumb 11.3115 41.3199
rfemur -15.0477 5.62819 21.9088
rtibia 22.2395
rfoot -12.9079 -6.76163
rtoes 2.43706
lfemur -12.0946 -1.40224 -11.7932
ltibia 20.0581
lfoot -9.60638 4.2886
ltoes -0.498351
